<svg width="302" height="33" viewBox="0 0 302 33" fill="none" xmlns="http://www.w3.org/2000/svg">
<path d="M44.92 7.44H42.92V25.44H44.92V32H29.8V25.44H31.72V11.44L24.92 32H19L12 11.64V25.44H13.92V32H0.8V25.44H2.8V7.44H0.8V0.879998H19.12L23.28 13.36L27.28 0.879998H44.92V7.44ZM58.3431 32.56C54.5565 32.56 51.5965 31.5733 49.4631 29.6C47.3298 27.6 46.2631 24.6933 46.2631 20.88C46.2631 17.0667 47.3298 14.1733 49.4631 12.2C51.5965 10.2 54.5565 9.2 58.3431 9.2C62.1831 9.2 65.1565 10.2133 67.2631 12.24C69.3698 14.24 70.4231 17.12 70.4231 20.88C70.4231 24.6933 69.3565 27.6 67.2231 29.6C65.0898 31.5733 62.1298 32.56 58.3431 32.56ZM58.3431 25.44C59.1165 25.44 59.6898 25.24 60.0631 24.84C60.4631 24.4133 60.6631 23.76 60.6631 22.88V18.88C60.6631 18 60.4631 17.36 60.0631 16.96C59.6898 16.5333 59.1165 16.32 58.3431 16.32C57.5698 16.32 56.9831 16.5333 56.5831 16.96C56.2098 17.36 56.0231 18 56.0231 18.88V22.88C56.0231 23.76 56.2098 24.4133 56.5831 24.84C56.9831 25.24 57.5698 25.44 58.3431 25.44ZM78.0966 32L73.0566 16.32H71.3766V9.76H83.7366V16.32H82.0566L84.1766 24.24H84.5766L86.6966 16.32H85.0166V9.76H96.6166V16.32H94.9366L90.0166 32H78.0966ZM99.6712 7.56V0.879998H107.831V7.56H99.6712ZM97.7513 32V25.44H99.5113V16.32H97.7513V9.76H108.711V25.44H110.471V32H97.7513ZM123.499 32.56C119.713 32.56 116.753 31.5733 114.619 29.6C112.486 27.6 111.419 24.6933 111.419 20.88C111.419 17.0667 112.486 14.1733 114.619 12.2C116.753 10.2 119.713 9.2 123.499 9.2C127.259 9.2 129.966 10.1867 131.619 12.16C133.299 14.1067 134.139 16.5333 134.139 19.44V22.32H121.179V22.56C121.179 23.5467 121.473 24.28 122.059 24.76C122.646 25.2133 123.619 25.44 124.979 25.44C126.606 25.44 128.153 25.32 129.619 25.08C131.086 24.84 132.366 24.5333 133.459 24.16V30.56C132.526 31.0667 131.153 31.5333 129.339 31.96C127.553 32.36 125.606 32.56 123.499 32.56ZM125.819 17.92V17.44C125.819 16.5333 125.619 15.88 125.219 15.48C124.846 15.08 124.273 14.88 123.499 14.88C122.726 14.88 122.139 15.0933 121.739 15.52C121.366 15.92 121.179 16.56 121.179 17.44V17.92H125.819ZM164.482 32.56C163.122 32.56 161.908 32.2267 160.842 31.56C159.802 30.8933 158.948 30.1333 158.282 29.28V32H147.322V25.44H149.082V7.44H147.322V0.879998H158.282V12.48C158.948 11.6267 159.802 10.8667 160.842 10.2C161.908 9.53333 163.122 9.2 164.482 9.2C167.202 9.2 169.242 10.2133 170.602 12.24C171.988 14.2667 172.682 17.1467 172.682 20.88C172.682 24.6133 171.988 27.4933 170.602 29.52C169.242 31.5467 167.202 32.56 164.482 32.56ZM160.602 25.44C161.375 25.44 161.948 25.24 162.322 24.84C162.722 24.4133 162.922 23.76 162.922 22.88V18.88C162.922 18 162.722 17.36 162.322 16.96C161.948 16.5333 161.375 16.32 160.602 16.32C159.828 16.32 159.242 16.5333 158.842 16.96C158.468 17.36 158.282 18 158.282 18.88V22.88C158.282 23.76 158.468 24.4133 158.842 24.84C159.242 25.24 159.828 25.44 160.602 25.44ZM190.886 9.2C191.419 9.2 191.926 9.25333 192.406 9.36C192.886 9.46667 193.286 9.6 193.606 9.76V17.4C192.513 16.9467 191.339 16.72 190.086 16.72C188.406 16.72 187.113 17.16 186.206 18.04C185.299 18.92 184.846 20.2267 184.846 21.96V25.44H188.446V32H173.886V25.44H175.646V16.32H173.886V9.76H184.846V12.68C185.593 11.56 186.446 10.7067 187.406 10.12C188.366 9.50666 189.526 9.2 190.886 9.2ZM206.82 32.56C203.033 32.56 200.073 31.5733 197.94 29.6C195.806 27.6 194.74 24.6933 194.74 20.88C194.74 17.0667 195.806 14.1733 197.94 12.2C200.073 10.2 203.033 9.2 206.82 9.2C210.66 9.2 213.633 10.2133 215.74 12.24C217.846 14.24 218.9 17.12 218.9 20.88C218.9 24.6933 217.833 27.6 215.7 29.6C213.566 31.5733 210.606 32.56 206.82 32.56ZM206.82 25.44C207.593 25.44 208.166 25.24 208.54 24.84C208.94 24.4133 209.14 23.76 209.14 22.88V18.88C209.14 18 208.94 17.36 208.54 16.96C208.166 16.5333 207.593 16.32 206.82 16.32C206.046 16.32 205.46 16.5333 205.06 16.96C204.686 17.36 204.5 18 204.5 18.88V22.88C204.5 23.76 204.686 24.4133 205.06 24.84C205.46 25.24 206.046 25.44 206.82 25.44ZM226.813 32L221.533 16.32H219.853V9.76H232.213V16.32H230.533L231.973 22.56H232.373L235.293 9.76H242.653L245.573 22.56H245.973L247.373 16.32H245.693V9.76H257.293V16.32H255.613L250.533 32H240.813L238.613 20.88H238.213L236.013 32H226.813ZM268.135 32.56C264.775 32.56 261.535 32.0267 258.415 30.96V25.04H264.895V25.44C264.895 26.72 265.709 27.36 267.335 27.36C268.775 27.36 269.495 26.8667 269.495 25.88C269.495 25.3467 269.282 24.9467 268.855 24.68C268.455 24.4133 267.735 24.1867 266.695 24L264.695 23.64C260.509 22.8933 258.415 20.52 258.415 16.52C258.415 14.2 259.295 12.4 261.055 11.12C262.815 9.84 265.189 9.2 268.175 9.2C271.509 9.2 274.322 9.76 276.615 10.88V16.44H270.535V16.04C270.535 15.5067 270.349 15.1067 269.975 14.84C269.629 14.5467 269.109 14.4 268.415 14.4C267.082 14.4 266.415 14.8267 266.415 15.68C266.415 16.1333 266.602 16.48 266.975 16.72C267.349 16.96 268.029 17.1867 269.015 17.4L271.295 17.84C273.669 18.2933 275.362 19.1333 276.375 20.36C277.389 21.5867 277.895 23.16 277.895 25.08C277.895 27.5067 277.042 29.36 275.335 30.64C273.655 31.92 271.255 32.56 268.135 32.56ZM291.078 32.56C287.291 32.56 284.331 31.5733 282.198 29.6C280.064 27.6 278.998 24.6933 278.998 20.88C278.998 17.0667 280.064 14.1733 282.198 12.2C284.331 10.2 287.291 9.2 291.078 9.2C294.838 9.2 297.544 10.1867 299.198 12.16C300.878 14.1067 301.718 16.5333 301.718 19.44V22.32H288.758V22.56C288.758 23.5467 289.051 24.28 289.638 24.76C290.224 25.2133 291.198 25.44 292.558 25.44C294.184 25.44 295.731 25.32 297.198 25.08C298.664 24.84 299.944 24.5333 301.037 24.16V30.56C300.104 31.0667 298.731 31.5333 296.918 31.96C295.131 32.36 293.184 32.56 291.078 32.56ZM293.398 17.92V17.44C293.398 16.5333 293.198 15.88 292.798 15.48C292.424 15.08 291.851 14.88 291.078 14.88C290.304 14.88 289.718 15.0933 289.318 15.52C288.944 15.92 288.758 16.56 288.758 17.44V17.92H293.398Z" fill="#FF0558"/>
</svg>
