<svg width="196" height="59" viewBox="0 0 196 59" fill="none" xmlns="http://www.w3.org/2000/svg">
<path fill-rule="evenodd" clip-rule="evenodd" d="M78.2713 12.9184V20.771H86.0946V56.1956H95.8432V20.771H103.218V12.9184H78.2713ZM153.464 29.6389H146.004V12.9763H136.285V56.2532H146.004V37.4912H153.464V56.2532H163.183V12.9763H153.464V29.6389ZM119.613 12.4527H117.92C109.142 12.4527 105.631 16.9316 105.631 24.203V44.8521C105.631 52.1239 109.142 56.777 118.108 56.777H119.801C128.704 56.777 131.839 51.4252 131.839 45.3763V37.9891H122.309V44.8521C122.309 47.4123 121.431 48.9826 118.923 48.9826C116.477 48.9826 115.663 47.5286 115.663 44.7946V24.1446C115.663 21.4105 116.477 20.015 118.923 20.015C121.493 20.015 122.309 21.5269 122.309 24.1446V29.147H131.839V23.621C131.839 16.4087 128.453 12.4527 119.613 12.4527ZM68.782 41.4224L65.9558 23.3316H64.2841L61.4576 41.4224H68.782ZM72.3262 12.9184L79.9759 56.1956H71.0902L70.009 49.2753H60.2308L59.1493 56.1956H50.2636L57.9136 12.9184H72.3262ZM184.391 41.4224L181.564 23.3316H179.893L177.066 41.4224H184.391ZM187.935 12.9184L195.585 56.1956H186.699L185.618 49.2753H175.84L174.759 56.1956H165.873L173.522 12.9184H187.935Z" fill="#FF0558"/>
<path fill-rule="evenodd" clip-rule="evenodd" d="M42.2501 0.757812L39.3521 42.2067L38.5733 42.2466L31.6807 12.9224H23.164L18.0078 43.3072L16.9027 43.3639L12.2862 12.9224H0.414062L11.2151 58.2397L23.2891 57.4557L27.2173 29.3268L28.3694 29.2653L33.6295 56.7761L45.1855 56.0206L54.3625 0.757812H42.2501Z" fill="#FF0558"/>
</svg>
